<?xml version="1.0" ?><svg style="enable-background:new 0 0 48 48.00004;" version="1.1" viewBox="0 0 48 48.00004" xml:space="preserve" xmlns="http://www.w3.org/2000/svg" xmlns:xlink="http://www.w3.org/1999/xlink"><g id="Icons"><g><path d="M24.00402,8.65721c-8.48004,0-15.35004,6.87-15.35004,15.33996    c0,8.48004,6.87,15.35004,15.35004,15.35004c8.46997,0,15.33997-6.87,15.33997-15.35004    C39.34398,15.52721,32.47399,8.65721,24.00402,8.65721z M29.82396,17.29716c0,0-0.5-0.01996-2.21997,0    c-1.67999,0.02002-1.70001,1.28003-1.70001,1.34003l-0.02002,3.19l3.94,0.08002l-0.57996,4.07001h-3.34003L25.804,34.5872    h-4.04999l-0.12006-8.59003l-3.54999-0.01996l0.09003-4.15002h3.5v-3c0.01001-0.32001,0.03998-0.64001,0.08002-0.96002    c0.08997-0.70001,0.27997-1.39996,0.60999-2.02997c0.28998-0.54004,0.69-1.02002,1.17999-1.39001    c0.5-0.38,1.08997-0.64001,1.70001-0.79999c0.42999-0.12,0.87-0.20001,1.31-0.21002c0.57001-0.02002,2.81,0.04999,3.37,0.06    L29.82396,17.29716z" style="fill:#5F83CF;"/><path d="    M21.75324,34.5837h4.05373l0.09561-8.60462h3.34624l0.57364-4.07285l-3.939-0.07649l0.01912-3.19327    c0,0-0.01912-1.31938,1.7018-1.3385s2.21808,0,2.21808,0l0.09742-3.79927c-0.55259-0.01277-2.79547-0.07981-3.36357-0.06418    c-0.43821,0.01205-0.88668,0.09666-1.31126,0.20967c-0.6097,0.16228-1.19729,0.42014-1.70286,0.80107    c-0.49142,0.37027-0.88962,0.84987-1.17691,1.39314c-0.33259,0.62894-0.51778,1.32673-0.61189,2.02918    c-0.04265,0.31837-0.06677,0.63911-0.07665,0.96013v3.00203h-3.4992l-0.09561,4.14934l3.55658,0.01912L21.75324,34.5837z" style="fill:none;stroke:#303030;stroke-width:0.7;stroke-linecap:round;stroke-linejoin:round;stroke-miterlimit:10;"/><circle cx="24" cy="24.00002" r="15.34377" style="fill:none;stroke:#303030;stroke-width:0.7;stroke-linecap:round;stroke-linejoin:round;stroke-miterlimit:10;"/><path d="    M22.38658,11.68077c0.53679-0.09549,1.07644-0.1576,1.61342-0.18429" style="fill:none;stroke:#303030;stroke-width:0.7;stroke-linecap:round;stroke-linejoin:round;stroke-miterlimit:10;"/><path d="    M15.96169,14.68793c1.39468-1.30908,3.18442-2.23438,5.10565-2.70386" style="fill:none;stroke:#303030;stroke-width:0.7;stroke-linecap:round;stroke-linejoin:round;stroke-miterlimit:10;"/></g></g></svg>