<?xml version="1.0" ?><svg fill="none" height="1080" viewBox="0 0 1080 1080" width="1080" xmlns="http://www.w3.org/2000/svg"><mask height="787" id="mask0" mask-type="alpha" maskUnits="userSpaceOnUse" width="787" x="144" y="146"><rect fill="#C4C4C4" height="760" rx="136.5" stroke="url(#paint0_linear)" stroke-width="27" width="760" x="157.5" y="159.5"/></mask><g mask="url(#mask0)"><path d="M382.55 513.85H463.3V473C463.3 441.967 467.1 416.95 474.7 397.95C482.3 378.317 492.433 363.433 505.1 353.3C517.767 342.533 532.017 335.567 547.85 332.4C564.317 328.6 581.417 326.7 599.15 326.7C633.983 326.7 659.317 328.917 675.15 333.35V417.9C668.183 416 660.583 414.733 652.35 414.1C644.75 412.833 635.567 412.2 624.8 412.2C610.233 412.2 597.567 415.683 586.8 422.65C576.667 429.617 571.6 443.233 571.6 463.5V513.85H663.75V594.6H571.6V1005H463.3V594.6H382.55V513.85Z" fill="url(#paint1_linear)"/><rect height="760" rx="136.5" stroke="url(#paint2_linear)" stroke-width="27" width="760" x="157.5" y="159.5"/></g><defs><linearGradient gradientUnits="userSpaceOnUse" id="paint0_linear" x1="538" x2="534.011" y1="146" y2="932.98"><stop stop-color="#1778F2" stop-opacity="0.75"/><stop offset="1" stop-color="#1778F2"/></linearGradient><linearGradient gradientUnits="userSpaceOnUse" id="paint1_linear" x1="485" x2="485" y1="116.921" y2="1056.99"><stop stop-color="#1979F2" stop-opacity="0.75"/><stop offset="1" stop-color="#1A7AF2"/></linearGradient><linearGradient gradientUnits="userSpaceOnUse" id="paint2_linear" x1="538" x2="534.011" y1="146" y2="932.98"><stop stop-color="#1778F2" stop-opacity="0.75"/><stop offset="1" stop-color="#1778F2"/></linearGradient></defs></svg>