<?xml version="1.0" encoding="iso-8859-1"?>
<!-- Generator: Adobe Illustrator 15.1.0, SVG Export Plug-In . SVG Version: 6.00 Build 0)  -->
<!DOCTYPE svg PUBLIC "-//W3C//DTD SVG 1.1//EN" "http://www.w3.org/Graphics/SVG/1.1/DTD/svg11.dtd">
<svg version="1.1" id="Layer_1" xmlns="http://www.w3.org/2000/svg" xmlns:xlink="http://www.w3.org/1999/xlink" x="0px" y="0px"
	 width="128px" height="128px" viewBox="0 0 128 128" style="enable-background:new 0 0 128 128;" xml:space="preserve">
<g>
	<circle style="fill:#E16B5A;" cx="64" cy="64" r="64"/>
	<g>
		<g>
			<defs>
				<circle id="SVGID_1_" cx="64" cy="64" r="64"/>
			</defs>
			<clipPath id="SVGID_2_">
				<use xlink:href="#SVGID_1_"  style="overflow:visible;"/>
			</clipPath>
			<g style="clip-path:url(#SVGID_2_);">
				<rect x="49.937" y="101.563" style="fill:#CCCCCC;" width="27.438" height="22.625"/>
				<polygon style="fill:#CC584C;" points="66.094,115.281 68.563,109.875 62.953,104 57.344,109.875 59.812,115.281 
					60.344,115.281 59.406,117.531 61.453,137.834 62.953,143.584 64.453,137.834 66.5,117.531 65.563,115.281 				"/>
				<polygon style="fill:#406A80;" points="45.437,97.875 62.953,122.75 62.953,136.125 14.25,136.125 20.25,105.375 				"/>
				<polygon style="fill:#406A80;" points="80.469,97.875 62.953,122.75 62.953,136.125 111.656,136.125 104.656,106.375 				"/>
				<polygon style="fill:#F5F5F5;" points="75.01,94.424 62.953,93 50.896,94.424 45.437,97.875 55.344,111.875 62.953,104 
					70.563,111.875 80.469,97.875 				"/>
				<path style="fill:#E6CBC3;" d="M75.372,95.563h0.004l-3.423-10.646l-9-0.666l-9,0.666L50.53,95.563h0.004
					c-0.051,0.146-0.082,0.295-0.082,0.443c0,2.206,5.597,3.993,12.5,3.993s12.5-1.787,12.5-3.993
					C75.453,95.857,75.422,95.709,75.372,95.563z"/>
				<path style="fill:#D9BFB8;" d="M75.372,95.563h0.004l-3.423-10.646l-9-0.666l-1.75,0.129l7.25,0.537l3.423,10.646h-0.004
					c0.051,0.146,0.082,0.295,0.082,0.443c0,2.016-4.677,3.678-10.75,3.95c0.573,0.024,1.154,0.043,1.75,0.043
					c6.903,0,12.5-1.787,12.5-3.993C75.453,95.857,75.422,95.709,75.372,95.563z"/>
				<path style="fill:#FFE1D9;" d="M88.953,42V31.597c0-8.113-5.771-14.597-26-14.597c-20.229,0-26,6.484-26,14.597V42
					c0,0-4,0.295-4,3v11.069c0,2.704,1,4.931,4,4.931c0,13.521,12.023,29,26,29c13.977,0,26-15.479,26-29c3,0,4-2.227,4-4.931V45
					C92.953,42.295,88.953,42,88.953,42z"/>
				<path style="fill:#F2D6CE;" d="M62.953,17c-0.511,0-1.007,0.007-1.5,0.015c19.011,0.316,24.5,6.674,24.5,14.582V42v19
					c0,13.035-11.176,27.883-24.5,28.936C61.951,89.975,62.45,90,62.953,90c13.977,0,26-15.479,26-29V42V31.597
					C88.953,23.484,83.184,17,62.953,17z"/>
				<path style="fill:#805026;" d="M62.953,17c-20.229,0-26,6.484-26,14.597V42v11c0.926-4.63,3.57-17.831,9.515-22.14
					C51.199,32.212,56.863,33,62.953,33c6.09,0,11.753-0.789,16.484-2.14c5.945,4.31,8.59,17.51,9.516,22.14V42V31.597
					C88.953,23.484,83.184,17,62.953,17z"/>
				<path style="fill:#734822;" d="M62.953,17c-0.51,0-1.005,0.007-1.497,0.015c19.009,0.317,24.497,6.674,24.497,14.582v9.87
					c1.593,4.528,2.525,9.158,3,11.533V42V31.597C88.953,23.484,83.184,17,62.953,17z"/>
				<g>
					<path style="fill:#CC9B8E;" d="M69.357,73.959c0.225,1.081-2.625,2.656-6.404,2.656s-6.629-1.575-6.405-2.656
						c0.224-1.082,3.074-1.344,6.405-1.344S69.135,72.877,69.357,73.959z"/>
				</g>
			</g>
		</g>
	</g>
	<g>
		<g>
			<ellipse style="fill:#F5F5F5;" cx="53" cy="50" rx="4" ry="3"/>
			<circle style="fill:#734822;" cx="53" cy="50" r="2"/>
		</g>
		<g>
			<ellipse style="fill:#F5F5F5;" cx="73" cy="50" rx="4" ry="3"/>
			<circle style="fill:#734822;" cx="73" cy="50" r="2"/>
		</g>
	</g>
</g>
</svg>
