<?xml version="1.0" encoding="iso-8859-1"?>
<!-- Generator: Adobe Illustrator 22.0.1, SVG Export Plug-In . SVG Version: 6.00 Build 0)  -->
<svg version="1.1" id="Layer_1_1_" xmlns="http://www.w3.org/2000/svg" xmlns:xlink="http://www.w3.org/1999/xlink" x="0px" y="0px"
	 viewBox="0 0 64 64" style="enable-background:new 0 0 64 64;" xml:space="preserve">
<g id="Guide">
	<g>
	</g>
	<g>
	</g>
	<g>
	</g>
	<g>
	</g>
	<g>
	</g>
	<g>
	</g>
	<g>
	</g>
	<g>
	</g>
	<g>
	</g>
	<g>
	</g>
	<g>
	</g>
	<g>
	</g>
	<g>
	</g>
	<g>
	</g>
	<g>
	</g>
	<g>
	</g>
	<g>
	</g>
	<g>
	</g>
	<g>
	</g>
	<g>
	</g>
	<g>
	</g>
	<g>
	</g>
	<g>
	</g>
	<g>
	</g>
	<g>
	</g>
	<g>
	</g>
	<g>
	</g>
	<g>
	</g>
	<g>
	</g>
	<g>
	</g>
	<g>
	</g>
	<g>
	</g>
	<g>
	</g>
	<g>
	</g>
	<g>
	</g>
	<g>
	</g>
</g>
<path d="M60.804,2.02c-6.506,1.301-13.102,1.301-19.607,0c-0.293-0.057-0.599,0.018-0.83,0.207C40.135,2.417,40,2.7,40,3v6H7
	c-2.757,0-5,2.243-5,5v30c0,2.757,2.243,5,5,5h18.753l-1.556,7H19c-0.553,0-1,0.447-1,1c0,2.757,2.243,5,5,5h18c2.757,0,5-2.243,5-5
	c0-0.553-0.447-1-1-1h-5.198l-1.556-7H57c2.757,0,5-2.243,5-5V14.355V3c0-0.3-0.135-0.583-0.366-0.773
	C61.403,2.038,61.099,1.964,60.804,2.02z M42,4.205c5.979,1.055,12.021,1.055,18,0v10.15c0,1.956-0.956,3.794-2.559,4.915L51,23.779
	l-6.441-4.509C42.956,18.149,42,16.312,42,14.355V10V4.205z M41,60H23c-1.304,0-2.416-0.836-2.829-2H25h14h4.829
	C43.416,59.164,42.304,60,41,60z M37.753,56H26.247l1.555-7h8.396L37.753,56z M57,47H37H27H7c-1.654,0-3-1.346-3-3v-3h9h38h9v3
	C60,45.654,58.654,47,57,47z M14,21v-6h14v6H14z M60,19.646V39h-8V27h-2v12H14V23h28v-2H30v-6h8v-2H13c-0.553,0-1,0.447-1,1v25H4V14
	c0-1.654,1.346-3,3-3h33v3.355c0,2.608,1.275,5.059,3.412,6.554l7.015,4.91C50.599,25.939,50.8,26,51,26s0.401-0.061,0.573-0.181
	l7.015-4.91c0.264-0.185,0.515-0.385,0.752-0.597c0.098-0.088,0.184-0.187,0.277-0.279C59.746,19.905,59.88,19.782,60,19.646z"/>
<path d="M50,17c0.256,0,0.512-0.098,0.707-0.293l6-6l-1.414-1.414L50,14.586l-2.293-2.293l-1.414,1.414l3,3
	C49.488,16.902,49.744,17,50,17z"/>
<rect x="16" y="17" width="2" height="2"/>
<rect x="20" y="17" width="2" height="2"/>
<rect x="24" y="17" width="2" height="2"/>
<path d="M26,26h-8c-0.553,0-1,0.447-1,1v8c0,0.553,0.447,1,1,1h8c0.553,0,1-0.447,1-1v-8C27,26.447,26.553,26,26,26z M25,34h-6v-6h6
	V34z"/>
<rect x="32" y="26" width="14" height="2"/>
<rect x="32" y="30" width="14" height="2"/>
<rect x="32" y="34" width="10" height="2"/>
<rect x="44" y="34" width="2" height="2"/>
</svg>
