<?xml version="1.0" encoding="iso-8859-1"?>
<!-- Generator: Adobe Illustrator 16.0.0, SVG Export Plug-In . SVG Version: 6.00 Build 0)  -->
<!DOCTYPE svg PUBLIC "-//W3C//DTD SVG 1.1//EN" "http://www.w3.org/Graphics/SVG/1.1/DTD/svg11.dtd">
<svg version="1.1" id="Capa_1" xmlns="http://www.w3.org/2000/svg" xmlns:xlink="http://www.w3.org/1999/xlink" x="0px" y="0px"
	 width="612px" height="612px" viewBox="0 0 612 612" style="enable-background:new 0 0 612 612;" xml:space="preserve">
<g>
	<g>
		<path d="M545.007,129.946H66.98c-0.004,0-0.008,0-0.008,0c-10.714,0-20.863,10.224-20.863,20.959v310.201
			c0,10.693,10.14,20.949,20.871,20.949h478.056c10.706,0,20.854-10.256,20.854-20.967v-310.2
			C565.891,140.169,555.733,129.946,545.007,129.946z M549.123,461.07c0,1.502-2.632,4.219-4.116,4.219H67.014
			c-1.509,0-4.138-2.713-4.138-4.201V150.921c0-1.501,2.62-4.208,4.117-4.208H544.99c1.505,0,4.129,2.708,4.129,4.192V461.07
			H549.123z"/>
		<path d="M545.007,83.836H66.98C29.359,83.836,0,113.267,0,150.905v310.191c0,37.621,29.359,67.068,66.98,67.068h478.022h0.004
			c37.646,0,66.993-29.447,66.993-67.076V150.9C612,113.267,582.649,83.836,545.007,83.836z M595.232,461.084
			c0,28.391-21.83,50.314-50.233,50.314H66.989c-28.387,0-50.222-21.924-50.222-50.311V150.913c0-28.399,21.831-50.31,50.213-50.31
			h478.019c28.403,0,50.233,21.911,50.233,50.302V461.084z"/>
		<path d="M278.355,325.426l0.277-0.428c-2.817-1.443-43.892-20.616-56.467-27.625v-8.287c4.191-6.594,9.683-14.591,9.809-22.908
			l0.377-0.495c5.248-3.253,6.581-9.587,10.772-17.409v-0.541c0-7.038-1.06-13.816-4.606-18.599
			c-0.771-1.035-1.97-1.966-2.905-2.767l0.758-9.532c0.025-0.268-0.046-0.541-0.046-0.809c0-19.252-15.304-46.369-49.232-46.369
			c-33.949,0-49.237,27.117-49.237,46.369c0,0.272,0.004,0.549,0.029,0.822l0.935,9.536c-5.126,4.443-7.831,12.487-6.531,21.328
			l0.083,0.591c1.166,7.789,5.064,14.097,10.287,17.358l1.027,0.511c0.125,8.3,3.026,16.302,11.41,22.912v8.246
			c-20.959,9.188-56.103,25.951-59.414,28.16c-0.516,0.344-1.161,0.705-1.916,1.119c-4.946,2.717-14.122,7.789-14.122,18.238v44.371
			c0,4.627,2.712,8.998,7.344,8.998h200.103c4.632,0,6.334-4.371,6.334-8.998V344.85
			C293.425,333.395,283.171,327.811,278.355,325.426z M276.658,381.453H95.359l-0.055-35.979c0.558-1.127,4.049-3.203,5.538-4.023
			c1.236-0.684,2.339-1.385,3.018-1.842c3.437-2.049,40.35-19.084,62.193-29.316c2.951-1.379,5.81-4.381,5.81-7.633v-17.279
			c0-2.498-2.096-4.867-4.016-6.459c-2.762-2.284-7.885-7.038-7.885-13.187c0-0.269-0.255-0.541-0.285-0.805l-0.708-6.053
			c-0.382-3.965-3.563-7.093-7.482-7.528c-0.616-0.486-2.025-2.318-2.499-5.496l-0.101-0.57c-0.432-2.947,0.18-5.022,0.637-5.869
			c1.685-0.373,3.228-1.258,4.406-2.557c1.588-1.752,2.364-4.1,2.129-6.451l-1.459-14.759c0.193-11.46,9.067-29.221,32.444-29.221
			c23.365,0,32.231,17.765,32.419,29.229l-1.434,14.759c-0.23,2.356,0.545,4.695,2.138,6.443c1.174,1.295,2.712,2.18,4.389,2.549
			c0.457,0.842,1.073,2.921,0.633,5.881l-0.084,0.562c-0.465,3.178-1.832,4.997-2.452,5.496c-3.915,0.432-7.034,3.55-7.424,7.512
			l-0.599,6.053c-0.025,0.272-0.042,0.549-0.042,0.822c0,6.17-4.007,10.907-6.766,13.179c-1.924,1.597-2.427,3.97-2.427,6.473
			v17.278c0,3.232,1.241,6.174,4.158,7.567c23.633,11.283,59.322,28.508,61.623,29.689l-0.104,0.537
			c5.08,2.514,5.587,3.918,5.587,4.396v36.604H276.658z"/>
		<path d="M500.624,209.589H305.413c-18.075,0-32.78,15.459-32.78,33.534c0,18.075,14.705,33.535,32.78,33.535H500.62
			c18.075,0,32.784-15.456,32.784-33.535S518.699,209.589,500.624,209.589z M500.624,259.891H305.413
			c-8.828,0-16.013-7.936-16.013-16.768s7.185-16.767,16.013-16.767H500.62c8.832,0,16.017,7.935,16.017,16.767
			C516.641,251.956,509.456,259.891,500.624,259.891z"/>
		<path d="M500.624,293.425H366.42c-18.074,0-32.783,15.459-32.783,33.534c0,18.076,14.709,33.535,32.783,33.535h134.204
			c18.075,0,32.784-15.459,32.784-33.535C533.408,308.885,518.699,293.425,500.624,293.425z M500.624,343.727H366.42
			c-8.832,0-16.017-7.936-16.017-16.768s7.185-16.768,16.017-16.768h134.204c8.832,0,16.017,7.936,16.017,16.768
			S509.456,343.727,500.624,343.727z"/>
	</g>
</g>
<g>
</g>
<g>
</g>
<g>
</g>
<g>
</g>
<g>
</g>
<g>
</g>
<g>
</g>
<g>
</g>
<g>
</g>
<g>
</g>
<g>
</g>
<g>
</g>
<g>
</g>
<g>
</g>
<g>
</g>
</svg>
