<?xml version="1.0" encoding="iso-8859-1"?>
<!-- Generator: Adobe Illustrator 16.0.0, SVG Export Plug-In . SVG Version: 6.00 Build 0)  -->
<!DOCTYPE svg PUBLIC "-//W3C//DTD SVG 1.1//EN" "http://www.w3.org/Graphics/SVG/1.1/DTD/svg11.dtd">
<svg version="1.1" id="Capa_1" xmlns="http://www.w3.org/2000/svg" xmlns:xlink="http://www.w3.org/1999/xlink" x="0px" y="0px"
	 width="516.375px" height="516.375px" viewBox="0 0 516.375 516.375" style="enable-background:new 0 0 516.375 516.375;"
	 xml:space="preserve">
<g>
	<g>
		<polygon points="306,306 330.862,306 269.662,371.025 240.975,346.162 227.587,332.775 172.125,392.062 172.125,286.875 
			153,286.875 153,439.875 172.125,439.875 363.375,439.875 363.375,420.75 172.125,420.75 172.125,420.75 229.5,359.55 
			256.275,386.325 271.575,397.8 344.25,319.388 344.25,344.25 363.375,344.25 363.375,306 363.375,286.875 306,286.875 		"/>
		<path d="M325.125,0h-9.562H114.75C93.712,0,76.5,17.212,76.5,38.25v439.875c0,21.037,17.212,38.25,38.25,38.25h286.875
			c21.037,0,38.25-17.213,38.25-38.25V143.438v-9.562L325.125,0z M325.125,28.688l89.888,105.188H344.25
			c-9.562,0-19.125-9.562-19.125-19.125V28.688z M420.75,478.125c0,9.562-7.65,19.125-19.125,19.125H114.75
			c-9.562,0-19.125-7.65-19.125-19.125V38.25c0-9.562,7.65-19.125,19.125-19.125H306v95.625c0,21.038,17.213,38.25,38.25,38.25h76.5
			V478.125z"/>
	</g>
</g>
<g>
</g>
<g>
</g>
<g>
</g>
<g>
</g>
<g>
</g>
<g>
</g>
<g>
</g>
<g>
</g>
<g>
</g>
<g>
</g>
<g>
</g>
<g>
</g>
<g>
</g>
<g>
</g>
<g>
</g>
</svg>
