<?xml version="1.0" ?><svg fill="none" height="1080" viewBox="0 0 1080 1080" width="1080" xmlns="http://www.w3.org/2000/svg"><rect height="760" rx="380" stroke="url(#paint0_linear)" stroke-width="27" width="760" x="157.5" y="159.5"/><path d="M737.975 415.475C723.25 422.013 707.438 426.412 690.838 428.412C707.775 418.262 720.788 402.138 726.925 383C711.075 392.4 693.5 399.212 674.825 402.925C659.838 386.962 638.513 377 614.913 377C569.588 377 532.85 413.737 532.85 459.075C532.85 465.475 533.575 471.775 534.975 477.775C466.775 474.338 406.3 441.675 365.825 392.037C358.762 404.15 354.713 418.237 354.713 433.275C354.713 461.762 369.2 486.863 391.225 501.588C377.775 501.175 365.113 497.463 354.05 491.313C354.038 491.65 354.038 491.988 354.038 492.363C354.038 532.138 382.338 565.287 419.875 572.837C412.988 574.712 405.738 575.7 398.263 575.7C392.975 575.7 387.825 575.213 382.825 574.238C393.263 606.85 423.575 630.587 459.488 631.225C431.4 653.25 396.013 666.375 357.575 666.375C350.95 666.375 344.413 665.987 338 665.2C374.313 688.487 417.45 702.087 463.788 702.087C614.738 702.087 697.275 577.037 697.275 468.588C697.275 465.05 697.2 461.488 697.05 457.963C713.075 446.388 726.963 431.938 737.975 415.475Z" fill="url(#paint1_linear)"/><defs><linearGradient gradientUnits="userSpaceOnUse" id="paint0_linear" x1="298.5" x2="772" y1="249.5" y2="841.4"><stop stop-color="#55B6E9"/><stop offset="1" stop-color="#3797ED"/></linearGradient><linearGradient gradientUnits="userSpaceOnUse" id="paint1_linear" x1="625.5" x2="338" y1="702" y2="324"><stop stop-color="#3797ED"/><stop offset="1" stop-color="#60BBEA"/></linearGradient></defs></svg>